<svg width="276" height="41" viewBox="0 0 276 41" fill="none" xmlns="http://www.w3.org/2000/svg">
<path d="M13.04 25.56H8.72V33H0.8V5H13.6C16.1333 5 18.3333 5.42666 20.2 6.28C22.0667 7.10667 23.5067 8.30667 24.52 9.88C25.5333 11.4267 26.04 13.2533 26.04 15.36C26.04 17.3867 25.56 19.16 24.6 20.68C23.6667 22.1733 22.32 23.3467 20.56 24.2L26.6 33H18.12L13.04 25.56ZM18.04 15.36C18.04 14.0533 17.6267 13.04 16.8 12.32C15.9733 11.6 14.7467 11.24 13.12 11.24H8.72V19.44H13.12C14.7467 19.44 15.9733 19.0933 16.8 18.4C17.6267 17.68 18.04 16.6667 18.04 15.36ZM39.0941 10.96C42.6941 10.96 45.4407 11.7867 47.3341 13.44C49.2274 15.0667 50.1741 17.5733 50.1741 20.96V33H43.0941V30.2C42.0007 32.3067 39.8674 33.36 36.6941 33.36C35.0141 33.36 33.5607 33.0667 32.3341 32.48C31.1074 31.8933 30.1741 31.1067 29.5341 30.12C28.9207 29.1067 28.6141 27.96 28.6141 26.68C28.6141 24.6267 29.4007 23.04 30.9741 21.92C32.5474 20.7733 34.9741 20.2 38.2541 20.2H42.5741C42.4407 17.9067 40.9074 16.76 37.9741 16.76C36.9341 16.76 35.8807 16.9333 34.8141 17.28C33.7474 17.6 32.8407 18.0533 32.0941 18.64L29.5341 13.48C30.7341 12.68 32.1874 12.0667 33.8941 11.64C35.6274 11.1867 37.3607 10.96 39.0941 10.96ZM38.8141 28.56C39.6941 28.56 40.4674 28.3467 41.1341 27.92C41.8007 27.4933 42.2807 26.8667 42.5741 26.04V24.16H39.2941C37.0807 24.16 35.9741 24.8933 35.9741 26.36C35.9741 27.0267 36.2274 27.56 36.7341 27.96C37.2407 28.36 37.9341 28.56 38.8141 28.56ZM78.3238 3.32V33H71.0838V30.84C69.6704 32.52 67.5504 33.36 64.7238 33.36C62.7504 33.36 60.9504 32.9067 59.3238 32C57.6971 31.0667 56.4038 29.7467 55.4438 28.04C54.5104 26.3333 54.0438 24.36 54.0438 22.12C54.0438 19.88 54.5104 17.92 55.4438 16.24C56.4038 14.5333 57.6971 13.2267 59.3238 12.32C60.9504 11.4133 62.7504 10.96 64.7238 10.96C67.3104 10.96 69.3104 11.7067 70.7238 13.2V3.32H78.3238ZM66.3238 27.32C67.6304 27.32 68.7104 26.8667 69.5638 25.96C70.4171 25.0267 70.8438 23.7467 70.8438 22.12C70.8438 20.52 70.4171 19.2667 69.5638 18.36C68.7371 17.4533 67.6571 17 66.3238 17C64.9904 17 63.8971 17.4533 63.0438 18.36C62.1904 19.2667 61.7638 20.52 61.7638 22.12C61.7638 23.7467 62.1904 25.0267 63.0438 25.96C63.8971 26.8667 64.9904 27.32 66.3238 27.32ZM83.2134 11.32H90.8134V33H83.2134V11.32ZM87.0134 8.92C85.6268 8.92 84.5068 8.53333 83.6534 7.76C82.8001 6.98667 82.3734 6.02667 82.3734 4.88C82.3734 3.73333 82.8001 2.77333 83.6534 2C84.5068 1.22667 85.6268 0.839999 87.0134 0.839999C88.4001 0.839999 89.5201 1.21333 90.3734 1.96C91.2268 2.68 91.6534 3.61333 91.6534 4.76C91.6534 5.96 91.2268 6.96 90.3734 7.76C89.5201 8.53333 88.4001 8.92 87.0134 8.92ZM106.633 33.36C104.313 33.36 102.219 32.88 100.353 31.92C98.4858 30.96 97.0192 29.6267 95.9525 27.92C94.9125 26.2133 94.3925 24.28 94.3925 22.12C94.3925 19.9867 94.9125 18.0667 95.9525 16.36C97.0192 14.6533 98.4725 13.3333 100.313 12.4C102.179 11.44 104.286 10.96 106.633 10.96C108.979 10.96 111.086 11.44 112.953 12.4C114.819 13.3333 116.273 14.6533 117.313 16.36C118.353 18.04 118.873 19.96 118.873 22.12C118.873 24.28 118.353 26.2133 117.313 27.92C116.273 29.6267 114.819 30.96 112.953 31.92C111.086 32.88 108.979 33.36 106.633 33.36ZM106.633 27.32C107.966 27.32 109.059 26.8667 109.913 25.96C110.766 25.0267 111.193 23.7467 111.193 22.12C111.193 20.52 110.766 19.2667 109.913 18.36C109.059 17.4533 107.966 17 106.633 17C105.299 17 104.206 17.4533 103.353 18.36C102.499 19.2667 102.073 20.52 102.073 22.12C102.073 23.7467 102.499 25.0267 103.353 25.96C104.206 26.8667 105.299 27.32 106.633 27.32Z" fill="black"/>
<path d="M128.713 11.28H120.113V5H145.193V11.28H136.633V33H128.713V11.28ZM155.969 10.96C159.569 10.96 162.316 11.7867 164.209 13.44C166.102 15.0667 167.049 17.5733 167.049 20.96V33H159.969V30.2C158.876 32.3067 156.742 33.36 153.569 33.36C151.889 33.36 150.436 33.0667 149.209 32.48C147.982 31.8933 147.049 31.1067 146.409 30.12C145.796 29.1067 145.489 27.96 145.489 26.68C145.489 24.6267 146.276 23.04 147.849 21.92C149.422 20.7733 151.849 20.2 155.129 20.2H159.449C159.316 17.9067 157.782 16.76 154.849 16.76C153.809 16.76 152.756 16.9333 151.689 17.28C150.622 17.6 149.716 18.0533 148.969 18.64L146.409 13.48C147.609 12.68 149.062 12.0667 150.769 11.64C152.502 11.1867 154.236 10.96 155.969 10.96ZM155.689 28.56C156.569 28.56 157.342 28.3467 158.009 27.92C158.676 27.4933 159.156 26.8667 159.449 26.04V24.16H156.169C153.956 24.16 152.849 24.8933 152.849 26.36C152.849 27.0267 153.102 27.56 153.609 27.96C154.116 28.36 154.809 28.56 155.689 28.56ZM185.486 10.96C187.46 10.96 189.246 11.4267 190.846 12.36C192.473 13.2667 193.753 14.5733 194.686 16.28C195.646 17.96 196.126 19.92 196.126 22.16C196.126 24.4 195.646 26.3733 194.686 28.08C193.753 29.76 192.473 31.0667 190.846 32C189.246 32.9067 187.46 33.36 185.486 33.36C182.953 33.36 180.94 32.6 179.446 31.08V40.76H171.846V11.32H179.086V13.48C180.5 11.8 182.633 10.96 185.486 10.96ZM183.886 27.32C185.22 27.32 186.313 26.8667 187.166 25.96C188.02 25.0267 188.446 23.76 188.446 22.16C188.446 20.56 188.02 19.3067 187.166 18.4C186.313 17.4667 185.22 17 183.886 17C182.553 17 181.46 17.4667 180.606 18.4C179.753 19.3067 179.326 20.56 179.326 22.16C179.326 23.76 179.753 25.0267 180.606 25.96C181.46 26.8667 182.553 27.32 183.886 27.32ZM210.539 33.36C208.219 33.36 206.125 32.88 204.259 31.92C202.392 30.96 200.925 29.6267 199.859 27.92C198.819 26.2133 198.299 24.28 198.299 22.12C198.299 19.9867 198.819 18.0667 199.859 16.36C200.925 14.6533 202.379 13.3333 204.219 12.4C206.085 11.44 208.192 10.96 210.539 10.96C212.885 10.96 214.992 11.44 216.859 12.4C218.725 13.3333 220.179 14.6533 221.219 16.36C222.259 18.04 222.779 19.96 222.779 22.12C222.779 24.28 222.259 26.2133 221.219 27.92C220.179 29.6267 218.725 30.96 216.859 31.92C214.992 32.88 212.885 33.36 210.539 33.36ZM210.539 27.32C211.872 27.32 212.965 26.8667 213.819 25.96C214.672 25.0267 215.099 23.7467 215.099 22.12C215.099 20.52 214.672 19.2667 213.819 18.36C212.965 17.4533 211.872 17 210.539 17C209.205 17 208.112 17.4533 207.259 18.36C206.405 19.2667 205.979 20.52 205.979 22.12C205.979 23.7467 206.405 25.0267 207.259 25.96C208.112 26.8667 209.205 27.32 210.539 27.32ZM237.379 33.36C234.979 33.36 232.833 32.88 230.939 31.92C229.046 30.96 227.566 29.6267 226.499 27.92C225.459 26.2133 224.939 24.28 224.939 22.12C224.939 19.96 225.459 18.04 226.499 16.36C227.566 14.6533 229.046 13.3333 230.939 12.4C232.833 11.44 234.979 10.96 237.379 10.96C239.833 10.96 241.953 11.4933 243.739 12.56C245.526 13.6 246.793 15.0533 247.539 16.92L241.659 19.92C240.673 17.9733 239.233 17 237.339 17C235.979 17 234.846 17.4533 233.939 18.36C233.059 19.2667 232.619 20.52 232.619 22.12C232.619 23.7467 233.059 25.0267 233.939 25.96C234.846 26.8667 235.979 27.32 237.339 27.32C239.233 27.32 240.673 26.3467 241.659 24.4L247.539 27.4C246.793 29.2667 245.526 30.7333 243.739 31.8C241.953 32.84 239.833 33.36 237.379 33.36ZM260.163 25.4L257.923 27.68V33H250.323V3.32H257.923V18.88L265.683 11.32H274.683L265.683 20.6L275.443 33H266.243L260.163 25.4Z" fill="#C82F00"/>
</svg>
